<svg width="66" height="66" viewBox="0 0 66 66" fill="none" xmlns="http://www.w3.org/2000/svg">
<path d="M30.6328 0.634773C23.9531 1.17188 17.5566 3.62306 12.5566 7.55861C11.1601 8.66212 8.22066 11.6504 7.09762 13.1055C4.63668 16.2988 2.48824 20.459 1.49215 23.9356C0.681599 26.7871 0.30074 29.2578 0.193318 32.2656C-0.0898851 40.9082 3.16207 49.1699 9.44137 55.7422C10.291 56.6309 12.3515 58.4961 12.8886 58.8574C13.0937 58.9941 13.3476 59.2188 13.455 59.3652C13.5625 59.502 13.7089 59.6094 13.7773 59.6094C13.8457 59.6094 14.2461 59.8535 14.666 60.1465C15.0957 60.4395 15.4668 60.6836 15.5058 60.6836C15.5351 60.6836 15.955 60.918 16.4336 61.2109C16.9121 61.5039 17.7617 61.9629 18.3183 62.2363C18.875 62.5098 19.4316 62.8223 19.5683 62.9297C19.6953 63.0274 20.0566 63.1641 20.3593 63.2227C20.6621 63.2813 21.0722 63.418 21.2578 63.5156C21.7168 63.7598 22.9375 64.1992 23.1718 64.1992C23.2793 64.1992 23.6211 64.3164 23.9433 64.4531C24.2656 64.5996 24.8125 64.7461 25.164 64.7949C25.5156 64.834 25.9746 64.9219 26.1894 64.9707C27.8398 65.3711 30.6621 65.7422 32.2441 65.7813C32.7226 65.8008 36.3847 65.5664 37.0781 65.4785C37.4296 65.4297 38.0839 65.3027 38.5429 65.1758C39.0019 65.0586 39.6367 64.9219 39.9589 64.8731C40.2812 64.834 40.8574 64.6973 41.2285 64.5899C41.6093 64.4727 42.2246 64.2969 42.5957 64.1895C42.9765 64.082 43.4746 63.9063 43.7089 63.7988C43.9433 63.7012 44.1972 63.6133 44.2753 63.6133C44.3437 63.6133 44.6171 63.5059 44.8808 63.3789C45.1347 63.2422 45.6035 63.0469 45.9257 62.9395C46.2382 62.8223 46.6875 62.5977 46.9121 62.4414C47.1367 62.2754 47.3711 62.1484 47.4492 62.1484C47.791 62.1484 49.666 61.0645 50.3105 60.4981C50.5156 60.3223 50.8378 60.1074 51.0332 60.0195C51.2285 59.9316 51.58 59.6973 51.8339 59.5117C53.5136 58.2227 53.4746 58.252 56.0527 55.8203C56.2285 55.6543 56.9804 54.8047 57.7519 53.8965C59.2168 52.1484 60.6718 49.9414 61.7461 47.7832C62.2441 46.7871 62.7226 45.7715 62.8105 45.5371C63.2109 44.4629 63.7285 42.8906 63.9238 42.1289C64.0507 41.6699 64.2363 41.0352 64.3437 40.7129C64.4511 40.3906 64.5683 39.8828 64.6171 39.5899C65.125 36.1035 65.291 33.252 65.1152 31.0254C64.9296 28.8184 64.7832 27.8516 64.3339 25.957C63.2304 21.2793 61.6289 17.8516 58.6894 13.8965C57.4101 12.168 57 11.6797 55.4863 10.1172C53.0156 7.55861 49.6074 5.1465 46.2187 3.5547C41.4726 1.3086 35.7011 0.234383 30.6328 0.634773ZM35.3886 9.56056C39.3925 10.0879 42.9668 11.543 46.3066 14.0039C51.2382 17.6465 54.666 23.1641 55.7402 29.1895C55.9453 30.3027 55.9746 30.7813 55.9746 32.9981C55.9746 35.8594 55.8574 36.875 55.291 39.0527C54.8222 40.8496 54.4414 41.8848 53.6796 43.4473C52.5078 45.8399 51.0234 47.9004 49.0117 49.9121C44.4511 54.4629 38.3183 56.8848 31.9511 56.6504C28.3574 56.5137 25.3398 55.7422 22.2246 54.1797C16.2871 51.2109 11.9218 45.9473 10.0664 39.5508C8.8066 35.1856 8.86519 30.3516 10.2324 26.1133C11.4824 22.2266 13.5136 18.916 16.3457 16.1328C17.6933 14.8145 18.2402 14.3457 19.4511 13.5254C22.0683 11.7481 24.7148 10.6152 27.9472 9.89259C30.0566 9.42384 33.2304 9.28712 35.3886 9.56056Z" fill="black"/>
<path d="M30.7305 13.0371C26.7656 13.5254 23.4941 14.873 20.4277 17.2754C19.5391 17.9785 18.0938 19.4141 17.3418 20.3516C15.1543 23.0762 13.4746 26.9043 13.1035 30.0391L13.0352 30.6055H13.3086C13.4551 30.6055 14.0605 30.5371 14.6562 30.459C17.7324 30.0391 23.1719 29.3359 23.3965 29.3359C23.6016 29.3262 23.709 29.2188 23.9922 28.7305C24.5 27.8418 25.4668 26.9043 26.3164 26.4844C27.5957 25.8398 27.8887 25.8105 32.8301 25.8398L37.2246 25.8691L37.9863 26.1426C39.373 26.6309 40.4863 27.5195 41.1895 28.7109L41.5312 29.2871L42.791 29.4531C45.5645 29.834 51.7363 30.6055 51.9707 30.6055C52.2832 30.6055 52.2832 30.4395 52.0195 29.1211C50.3789 21.0938 43.7969 14.5898 35.9062 13.2129C34.6172 12.9785 31.8828 12.8906 30.7305 13.0371ZM33.2695 16.0059C33.5039 16.25 33.5137 16.2988 33.543 17.8125L33.5723 19.375L33.2793 19.668C32.8789 20.0684 32.3906 20.0684 31.9902 19.6777L31.707 19.3945V17.8613C31.707 17.002 31.7559 16.25 31.8047 16.1523C32.0781 15.6348 32.8301 15.5664 33.2695 16.0059ZM28.709 16.5527C29.0117 16.6895 29.0898 16.8359 29.5098 18.0957C29.9297 19.3457 29.9492 19.834 29.6074 20.1562C29.2559 20.4883 28.7285 20.4785 28.4355 20.1367C28.2012 19.8633 27.4102 17.627 27.4102 17.2461C27.4102 16.9434 27.918 16.4453 28.2305 16.4453C28.3672 16.4453 28.582 16.4941 28.709 16.5527ZM37.5469 16.7871C37.8398 17.1387 37.8203 17.3535 37.3711 18.7988C36.8633 20.3906 36.5605 20.6934 35.8086 20.3027C35.2031 19.9902 35.1836 19.6582 35.7207 18.0664C36.1797 16.6797 36.4141 16.3867 36.9707 16.4844C37.1758 16.5137 37.4102 16.6406 37.5469 16.7871ZM25.0078 18.3203C25.5645 18.8574 26.6289 20.5176 26.6289 20.8496C26.6289 21.2695 26.4629 21.5234 26.0918 21.6797C25.5059 21.9238 25.2324 21.709 24.1484 20.166C23.3867 19.0918 23.3281 18.7598 23.7871 18.291C24.1777 17.9004 24.5781 17.9102 25.0078 18.3203ZM41.4434 18.3301C41.5605 18.4473 41.6875 18.6816 41.7266 18.8477C41.7754 19.1016 41.6777 19.3066 40.9648 20.3418C40.1055 21.6211 39.7734 21.9043 39.2852 21.7773C38.6504 21.6211 38.4062 21.0254 38.7188 20.4102C39.0605 19.7363 40.1445 18.2617 40.3984 18.125C40.7109 17.9688 41.1699 18.0566 41.4434 18.3301ZM21.668 20.8105C22.293 21.3184 23.4551 22.3535 23.6211 22.5488C24.168 23.1836 23.3477 24.2578 22.5664 23.916C22.1758 23.7402 20.3594 22.1582 20.2031 21.8555C20.0371 21.5332 20.1348 21.1133 20.4473 20.8008C20.7891 20.459 21.2383 20.4688 21.668 20.8105ZM44.7734 20.8887C45.1152 21.2891 45.0664 21.8555 44.666 22.2363C44.1094 22.7734 42.9961 23.7305 42.7227 23.9062C42.3711 24.1406 41.9414 24.043 41.6191 23.6523C41.3359 23.3105 41.3066 22.9395 41.5508 22.5879C41.7266 22.3242 43.3477 20.8594 43.6699 20.6641C43.9629 20.4883 44.5195 20.5957 44.7734 20.8887ZM19.7539 24.7559C21.1602 25.2344 21.3164 25.332 21.4434 25.7812C21.5898 26.2988 21.3457 26.748 20.8379 26.9238C20.5449 27.0312 17.9277 26.1426 17.6738 25.8594C17.3613 25.5176 17.3711 24.9121 17.6934 24.5996C18.0254 24.2578 18.3965 24.2871 19.7539 24.7559ZM47.498 24.5898C47.7031 24.7754 47.7715 24.9121 47.7715 25.2051C47.7715 25.8887 47.5957 26.0254 46.1309 26.4844C44.7148 26.9238 44.5098 26.9531 44.1777 26.7773C43.8555 26.6113 43.7285 26.3965 43.7188 26.0059C43.7188 25.4297 43.9434 25.2539 45.2812 24.7949C46.7168 24.2969 47.1074 24.2578 47.498 24.5898Z" fill="black"/>
<path d="M31.3164 30.0684C28.9629 30.7324 27.4394 33.3789 28.0449 35.7324C28.4843 37.4024 29.9101 38.8184 31.5215 39.1895C33.0351 39.541 34.7343 39.082 35.8672 38.0078C36.8925 37.041 37.3711 35.957 37.3711 34.6094C37.3711 32.7637 36.375 31.1817 34.6758 30.3516C33.9922 30.0098 33.875 29.9805 32.8984 29.9512C32.1758 29.9317 31.6875 29.9707 31.3164 30.0684Z" fill="black"/>
<path d="M13.0059 36.084C13.5137 38.5742 13.9336 39.9609 14.666 41.5136C17.0098 46.4941 21.1699 50.2734 26.2383 52.041C27.498 52.4804 29.5 52.9004 29.5391 52.7343C29.5586 52.6367 28.5625 47.6172 28.2891 46.4551C28.1133 45.7324 28.1035 45.7422 28.9238 45.9863C31.2188 46.6992 33.7578 46.6992 36.1797 46.0058L36.9805 45.7715V45.9765C36.9805 46.0937 36.7168 47.5683 36.3945 49.2578C36.0723 50.9472 35.8086 52.4511 35.8086 52.5879C35.8086 52.8418 35.8184 52.8418 36.2773 52.7636C42.1855 51.6601 47.6445 47.4511 50.3594 41.9043C51.0137 40.5761 51.8242 38.2129 52.0586 36.9629C52.293 35.7324 52.3027 35.7617 51.7559 35.8398C51.2578 35.9082 43.6211 37.2754 42.7812 37.4414L42.293 37.5488L42.1758 38.1054C41.7656 40.0781 39.9004 42.3633 37.7324 43.5351C36.1016 44.414 34.6465 44.7656 32.6152 44.7656C28.2012 44.7656 24.5 42.2754 23.2207 38.4765C23.0645 37.998 22.8691 37.5683 22.8008 37.5293C22.7324 37.4902 22.127 37.3633 21.4531 37.2558C20.7793 37.1386 18.8066 36.7773 17.0586 36.4648C15.3105 36.1523 13.6699 35.8594 13.4062 35.8203L12.9375 35.7519L13.0059 36.084Z" fill="black"/>
</svg>
